<mxfile host="app.diagrams.net" modified="2020-05-08T18:33:23.482Z" agent="5.0 (X11; Linux x86_64) AppleWebKit/537.36 (KHTML, like Gecko) Chrome/81.0.4044.129 Safari/537.36" etag="5rmAOdd_g30BFK5r0Xw0" version="13.0.9" type="github">
  <diagram id="gdtJ1TLoo7WhxFd_ldS1" name="Page-1">
    <mxGraphModel dx="1973" dy="1134" grid="1" gridSize="10" guides="1" tooltips="1" connect="1" arrows="1" fold="1" page="1" pageScale="1" pageWidth="827" pageHeight="1169" math="0" shadow="0">
      <root>
        <mxCell id="0" />
        <mxCell id="1" parent="0" />
        <mxCell id="8hTHCDgBlvWiPddKD1nl-5" style="edgeStyle=orthogonalEdgeStyle;rounded=0;orthogonalLoop=1;jettySize=auto;html=1;exitX=0.5;exitY=1;exitDx=0;exitDy=0;" edge="1" parent="1" source="8hTHCDgBlvWiPddKD1nl-1" target="8hTHCDgBlvWiPddKD1nl-4">
          <mxGeometry relative="1" as="geometry" />
        </mxCell>
        <mxCell id="8hTHCDgBlvWiPddKD1nl-11" style="edgeStyle=orthogonalEdgeStyle;rounded=0;orthogonalLoop=1;jettySize=auto;html=1;exitX=0;exitY=0.5;exitDx=0;exitDy=0;" edge="1" parent="1" source="8hTHCDgBlvWiPddKD1nl-1" target="8hTHCDgBlvWiPddKD1nl-10">
          <mxGeometry relative="1" as="geometry" />
        </mxCell>
        <mxCell id="8hTHCDgBlvWiPddKD1nl-13" style="edgeStyle=orthogonalEdgeStyle;rounded=0;orthogonalLoop=1;jettySize=auto;html=1;exitX=1;exitY=0.5;exitDx=0;exitDy=0;" edge="1" parent="1" source="8hTHCDgBlvWiPddKD1nl-1" target="8hTHCDgBlvWiPddKD1nl-12">
          <mxGeometry relative="1" as="geometry" />
        </mxCell>
        <mxCell id="8hTHCDgBlvWiPddKD1nl-1" value="Monolith Backend&lt;br&gt;(Stateless)" style="rounded=0;whiteSpace=wrap;html=1;" vertex="1" parent="1">
          <mxGeometry x="275" y="470" width="210" height="90" as="geometry" />
        </mxCell>
        <mxCell id="8hTHCDgBlvWiPddKD1nl-3" style="edgeStyle=orthogonalEdgeStyle;rounded=0;orthogonalLoop=1;jettySize=auto;html=1;exitX=0.5;exitY=1;exitDx=0;exitDy=0;" edge="1" parent="1" source="8hTHCDgBlvWiPddKD1nl-2" target="8hTHCDgBlvWiPddKD1nl-1">
          <mxGeometry relative="1" as="geometry" />
        </mxCell>
        <mxCell id="8hTHCDgBlvWiPddKD1nl-2" value="Frontend + Nginx Gateway" style="rounded=0;whiteSpace=wrap;html=1;" vertex="1" parent="1">
          <mxGeometry x="280" y="180" width="200" height="90" as="geometry" />
        </mxCell>
        <mxCell id="8hTHCDgBlvWiPddKD1nl-4" value="MongoDb&lt;br&gt;(Document-oriented DB)" style="shape=cylinder;whiteSpace=wrap;html=1;boundedLbl=1;backgroundOutline=1;" vertex="1" parent="1">
          <mxGeometry x="330" y="670" width="100" height="150" as="geometry" />
        </mxCell>
        <mxCell id="8hTHCDgBlvWiPddKD1nl-6" value="ELK Stack&lt;br&gt;Log agregation" style="rounded=0;whiteSpace=wrap;html=1;" vertex="1" parent="1">
          <mxGeometry x="110" y="880" width="140" height="80" as="geometry" />
        </mxCell>
        <mxCell id="8hTHCDgBlvWiPddKD1nl-7" value="GitLab (CI/CD)" style="rounded=0;whiteSpace=wrap;html=1;" vertex="1" parent="1">
          <mxGeometry x="335" y="880" width="145" height="80" as="geometry" />
        </mxCell>
        <mxCell id="8hTHCDgBlvWiPddKD1nl-8" value="Prometheus + Grafana (Metrics aggregation and visualization)" style="rounded=0;whiteSpace=wrap;html=1;" vertex="1" parent="1">
          <mxGeometry x="550" y="880" width="180" height="80" as="geometry" />
        </mxCell>
        <mxCell id="8hTHCDgBlvWiPddKD1nl-9" value="" style="endArrow=none;html=1;" edge="1" parent="1">
          <mxGeometry width="50" height="50" relative="1" as="geometry">
            <mxPoint y="840" as="sourcePoint" />
            <mxPoint x="820" y="840" as="targetPoint" />
            <Array as="points">
              <mxPoint x="430" y="840" />
            </Array>
          </mxGeometry>
        </mxCell>
        <mxCell id="8hTHCDgBlvWiPddKD1nl-10" value="Cache (Redis)" style="shape=document;whiteSpace=wrap;html=1;boundedLbl=1;" vertex="1" parent="1">
          <mxGeometry x="90" y="370" width="150" height="90" as="geometry" />
        </mxCell>
        <mxCell id="8hTHCDgBlvWiPddKD1nl-12" value="Keycloak" style="rounded=0;whiteSpace=wrap;html=1;" vertex="1" parent="1">
          <mxGeometry x="535" y="180" width="210" height="85" as="geometry" />
        </mxCell>
        <mxCell id="8hTHCDgBlvWiPddKD1nl-14" value="" style="rounded=0;whiteSpace=wrap;html=1;gradientColor=none;glass=1;fillColor=none;" vertex="1" parent="1">
          <mxGeometry x="160" y="650" width="450" height="180" as="geometry" />
        </mxCell>
        <mxCell id="8hTHCDgBlvWiPddKD1nl-15" value="" style="rounded=0;whiteSpace=wrap;html=1;glass=1;fillColor=none;gradientColor=none;" vertex="1" parent="1">
          <mxGeometry x="40" y="370" width="760" height="270" as="geometry" />
        </mxCell>
        <mxCell id="8hTHCDgBlvWiPddKD1nl-16" value="" style="rounded=0;whiteSpace=wrap;html=1;glass=1;fillColor=none;gradientColor=none;" vertex="1" parent="1">
          <mxGeometry x="40" y="110" width="740" height="180" as="geometry" />
        </mxCell>
      </root>
    </mxGraphModel>
  </diagram>
</mxfile>
